<?xml version="1.0" encoding="utf-8"?>
<!-- Generator: Adobe Illustrator 28.2.0, SVG Export Plug-In . SVG Version: 6.00 Build 0)  -->
<svg version="1.1" id="Layer_1" xmlns="http://www.w3.org/2000/svg" xmlns:xlink="http://www.w3.org/1999/xlink" x="0px" y="0px"
	 viewBox="0 0 512 512" style="enable-background:new 0 0 512 512;" xml:space="preserve">
<style type="text/css">
	.st0{fill:#00DC82;}
</style>
<path class="st0" d="M260.8,465.7h156.9c5,0,9.8-1.8,14.1-4.2c4.3-2.5,8.8-5.6,11.3-9.9c2.5-4.3,4.2-9.2,4.2-14.1
	c0-5-1.7-9.8-4.2-14.1L337.1,241c-2.5-4.3-5.6-7.4-9.9-9.9c-4.3-2.5-10.5-4.2-15.5-4.2s-9.8,1.8-14.1,4.2c-4.3,2.5-7.4,5.6-9.9,9.9
	l-26.9,46.6l-53.7-90.5c-2.5-4.3-5.6-8.8-9.9-11.3c-4.3-2.5-9.1-2.8-14.1-2.8s-9.8,0.3-14.1,2.8c-4.3,2.5-8.8,7-11.3,11.3
	L26.2,423.3c-2.5,4.3-2.8,9.2-2.8,14.1c0,5,0.3,9.8,2.8,14.1c2.5,4.3,7,7.4,11.3,9.9c4.3,2.5,9.1,4.2,14.1,4.2h98.9
	c39.2,0,67.7-17.6,87.6-50.9l48.1-83.4l25.4-43.8l77.7,132.9H286.3L260.8,465.7z M149.2,420.5H79.9l103.2-178.1l52.3,89l-34.6,60.4
	C187.5,413.5,172.5,420.5,149.2,420.5z"/>
<g>
	<path class="st0" d="M329.3,88.5c16.3,0,32.7-0.2,49,0.1c4.6,0.1,6-1.6,7-5.7c2.6-10.7,5.6-21.3,8.6-32c1.5-5.5,4.8-8.2,10.6-8.2
		c14.7-0.1,29.5-0.1,44.2,0c7.9,0.1,12.1,6.3,10,13.9c-2.6,9.4-5,18.8-7.6,28.1c-0.9,3.2,0.1,3.8,3,3.8c9-0.1,18-0.1,27,0
		c9.1,0,13.4,5.8,11,14.5c-3.9,14-7.7,28.1-11.4,42.2c-1.7,6.3-4.7,9-11.2,9.1c-10.9,0.1-21.8,0.2-32.7-0.1
		c-3.6-0.1-4.8,1.4-5.6,4.6c-2.8,11.1-5.9,22.2-8.9,33.3c-1.4,5.1-4.5,7.9-9.8,8c-15.2,0.2-30.3,0.2-45.5,0
		c-7.5-0.1-11.6-6.2-9.6-13.5c2.5-9.4,4.9-18.8,7.7-28.1c1.1-3.7-0.1-4.2-3.4-4.2c-13,0.1-25.9,0.1-38.9,0
		c-7.3,0-11.9-4.1-11.8-10.2c0.1-5.9,4.7-9.8,11.8-9.8c18.1,0,36.2,0,54.3,0c9.2,0,13.4,5.5,11.1,14.5c-2.4,9.4-4.9,18.8-7.6,28.1
		c-0.7,2.5-0.5,3.4,2.3,3.3c5.7-0.2,11.5-0.3,17.2,0c3.7,0.2,5.2-1.1,6.1-4.6c2.8-11.1,5.9-22.2,8.9-33.2c1.5-5.4,4.9-8.1,10.5-8.1
		c11-0.1,22.1-0.1,33.1,0.1c3,0,4.5-0.7,5.2-3.8c1.4-6.3,3.1-12.6,4.9-18.8c0.8-2.7,0-3.4-2.6-3.4c-9,0.1-18,0.1-27,0
		c-9.8,0-13.9-5.4-11.3-15c2.3-8.8,4.5-17.7,7.1-26.4c1.1-3.8-0.3-4.3-3.5-4.2c-5.4,0.1-10.9,0.3-16.3-0.1c-3.4-0.2-4.6,1.2-5.3,4.3
		c-2.8,11-5.8,21.9-8.8,32.8c-1.7,6.2-4.7,8.5-11.1,8.5c-37.3,0-74.5,0-111.8,0c-6.4,0-11.2-4.4-11.2-10c0-5.6,4.9-9.9,11.3-10
		C295.4,88.5,312.3,88.5,329.3,88.5z"/>
	<path class="st0" d="M302.8,180.2c7.9,0,15.9,0,23.8,0c6.6,0,10.7,3.8,10.9,9.5c0.1,6.1-3.5,10-10.2,10.1
		c-16.6,0.2-33.2,0.1-49.8,0c-5.8-0.1-9.8-4.4-9.7-9.8c0-5.5,4.4-9.7,10.3-9.8C286.4,180.1,294.6,180.2,302.8,180.2z"/>
	<path class="st0" d="M337.4,43c7.9,0,15.9,0,23.8,0c6.4,0.1,10.7,4,10.7,9.8c0,5.8-4.2,9.8-10.6,9.9c-16.2,0.1-32.4,0.1-48.5,0
		c-6.4,0-10.7-4-10.7-9.8c0-5.9,4.1-9.8,10.6-9.8C320.9,43,329.1,43,337.4,43z"/>
</g>
</svg>
